HIERARCHY
ROOT pelvis
{
  OFFSET 0 100 0
  CHANNELS 6 Xposition Yposition Zposition Zrotation Xrotation Yrotation
  JOINT pelvis_right_femur
  {
    OFFSET -10.78128 -3.44521 -0.5502486
    CHANNELS 3 Zrotation Xrotation Yrotation
    JOINT right_femur_tibia
    {
      OFFSET -0.8047443 -44.0398 -0.1307829
      CHANNELS 3 Zrotation Xrotation Yrotation
      JOINT right_tibia_foot
      {
        OFFSET 3.006224 -47.83518 -5
        CHANNELS 3 Zrotation Xrotation Yrotation
        End Site
        {
          OFFSET 0 -5 15
        }
      }
    }
  }
  JOINT pelvis_left_femur
  {
    OFFSET 10.78128 -3.44521 -0.5502486
    CHANNELS 3 Zrotation Xrotation Yrotation
    JOINT left_femur_tibia
    {
      OFFSET 0.8047443 -44.0398 -0.1307829
      CHANNELS 3 Zrotation Xrotation Yrotation
      JOINT left_tibia_foot
      {
        OFFSET -4.370144 -48.10324 -4.275266
        CHANNELS 3 Zrotation Xrotation Yrotation
        End Site
        {
          OFFSET 0 -5 15
        }
      }
    }
  }
  JOINT pelvis_spine1
  {
    OFFSET 0 6.468898 -3.129235
    CHANNELS 3 Zrotation Xrotation Yrotation
    JOINT spine1
    {
      OFFSET 0 23.15396 4.99043
      CHANNELS 3 Zrotation Xrotation Yrotation
      JOINT spine2
      {
        OFFSET 0 20.79997 -5.064912
        CHANNELS 3 Zrotation Xrotation Yrotation
        JOINT neck
        {
          OFFSET 0 14.38658 9.616178
          CHANNELS 3 Zrotation Xrotation Yrotation
          End Site
          {
            OFFSET 0 20 0
          }
        }
      }
      JOINT right_manubrium
      {
        OFFSET -5.722621 16.35077 3.967754
        CHANNELS 3 Zrotation Xrotation Yrotation
        JOINT right_clavicle
        {
          OFFSET -13.16364 1.694482 -4.693211
          CHANNELS 3 Zrotation Xrotation Yrotation
          JOINT right_humerus
          {
            OFFSET -28.5034 -0.3100689 -2.792744
            CHANNELS 3 Zrotation Xrotation Yrotation
            JOINT right_radius
            {
              OFFSET -25.15693 0.02248979 -1.271978
              CHANNELS 3 Zrotation Xrotation Yrotation
              End Site
              {
                OFFSET -15 0 0
              }
            }
          }
        }
      }
      JOINT left_manubrium
      {
        OFFSET 5.722621 16.35077 3.967754
        CHANNELS 3 Zrotation Xrotation Yrotation
        JOINT left_clavicle
        {
          OFFSET 13.16364 1.694482 -4.693211
          CHANNELS 3 Zrotation Xrotation Yrotation
          JOINT left_humerus
          {
            OFFSET 29.39168 -1.063119 -2.237045
            CHANNELS 3 Zrotation Xrotation Yrotation
            JOINT left_radius
            {
              OFFSET 24.59957 -0.9528479 0.9047498
              CHANNELS 3 Zrotation Xrotation Yrotation
              End Site
              {
                OFFSET 15 -0 -0
              }
            }
          }
        }
      }
    }
  }
}
MOTION
Frames: 7
Frame Time: 0.0416666666667
-1154.508 98.53266 2461.07 -9.682109 -5.007086 -63.26321 -0.08860706 -7.193458 -2.368545 -0 54.05376 -0 -15.91917 11.60349 2.527195 -4.567062 5.556823 -13.29677 -0 15.05031 -0 1.237932 -12.19176 19.08651 1.55493 -1.380629 9.268451 1.763074 14.71089 -7.16773 1.439021 19.80275 -0.4237369 -3.707234 -25.3604 5.17628 -10.15797 -38.74865 10.67605 94.04115 15.90065 -5.052783 -0 0 34.40562 -19.78662 11.95959 12.5728 -2.188119 -17.98832 -4.167862 -97.89788 14.03077 45.12421 -0 0 1.28017 1.058727 12.03833 5.362941
-1158.149 98.62327 2463.484 -9.39121 -4.749677 -62.92257 0.04553155 -12.27573 -3.866176 -0 44.17376 -0 -14.62799 7.932649 1.787383 -4.303351 8.586325 -13.30302 -0 12.5326 -0 0.2294561 -14.60718 17.86914 1.694931 -0.9257394 9.265972 1.822959 14.31417 -7.365207 1.591626 19.9894 -0.6827389 -4.376223 -26.68861 5.603435 -11.91616 -39.45066 10.06679 95.54292 16.51583 -4.900197 -0 0 34.62806 -19.33509 11.07085 12.03226 -2.791651 -17.17578 -3.316822 -97.59557 14.51392 45.4083 -0 0 1.93234 0.8765605 12.06002 4.581266
-1161.9 98.0301 2465.838 -8.290038 -4.438149 -62.64971 -0.00753385 -16.46349 -5.48539 -0 32.94635 -0 -13.03966 4.911177 1.234548 -4.479237 11.09471 -13.07798 -0 10.56086 -0 -0.4882916 -17.22893 16.73196 1.821928 -0.4942101 9.230887 1.847172 13.89686 -7.557893 1.727254 20.17522 -0.833413 -4.901622 -27.93745 6.031123 -13.54869 -39.94713 9.478608 96.98319 17.30507 -4.930041 -0 0 34.68641 -18.91862 10.15807 11.40369 -3.280905 -16.46679 -2.467876 -97.16563 14.8923 45.41185 -0 0 2.497171 0.9233679 12.12956 3.57251
-1165.876 96.96185 2468.181 -6.674738 -4.003077 -62.40702 0.02273873 -20.02567 -6.718396 -0 22.69802 -0 -11.50985 3.088925 0.8450096 -4.943885 13.11334 -12.56627 -0 9.73118 -0 -0.5227859 -19.52918 15.90401 1.929891 -0.1148675 9.169576 1.83445 13.48256 -7.740748 1.831186 20.34474 -0.8594258 -5.237328 -29.01557 6.430562 -14.92773 -40.19272 8.971597 98.26616 18.20997 -5.164522 -0 0 34.57113 -18.5605 9.27098 10.70269 -3.599375 -15.92749 -1.675764 -96.61848 15.1244 45.10138 -0 0 2.908174 1.22115 12.24432 2.372061
-1170.128 95.65001 2470.553 -4.958661 -3.438498 -62.17988 0.3319737 -23.03549 -7.292096 -0 14.78051 -0 -10.28801 2.482753 0.5886293 -5.471172 14.64154 -11.84762 -0 10.35144 -0 0.08525549 -21.0827 15.41999 2.015326 0.1841928 9.090385 1.790823 13.10444 -7.90825 1.894776 20.48543 -0.7674914 -5.366905 -29.84111 6.771044 -15.94727 -40.17378 8.600007 99.30752 19.13195 -5.593353 -0 0 34.28739 -18.28378 8.473958 9.972002 -3.713314 -15.60588 -1.003238 -95.9902 15.19463 44.4869 -0 0 3.098508 1.744895 12.39396 1.068652
-1174.689 94.30604 2472.99 -3.488722 -2.785686 -61.96054 1.000925 -25.381 -7.187917 -0 9.598005 -0 -9.492629 2.813554 0.4555693 -5.866442 15.6727 -11.0356 -0 12.5068 -0 0.985354 -21.64275 15.11495 2.076842 0.3869133 9.003015 1.728083 12.79439 -8.054638 1.916497 20.59115 -0.5859115 -5.308155 -30.36548 7.025367 -16.5561 -39.91632 8.392277 100.054 19.96683 -6.170654 -0 0 33.86114 -18.09957 7.823109 9.265842 -3.624678 -15.51613 -0.5041726 -95.33648 15.11529 43.63092 -0 0 3.030707 2.428129 12.56096 -0.2208478
-1179.586 93.11198 2475.525 -2.484206 -2.10621 -61.75328 2.022202 -26.85835 -6.535055 -0 6.949928 -0 -9.137566 3.697228 0.4280632 -6.00625 16.19287 -10.19719 -0 16.20808 -0 1.756736 -21.10895 14.74881 2.114409 0.4937977 8.917355 1.658956 12.57405 -8.173754 1.900021 20.66229 -0.3533654 -5.101895 -30.58074 7.174744 -16.7629 -39.47652 8.345128 100.4873 20.63719 -6.826786 -0 0 33.33793 -18.00476 7.351393 8.633447 -3.367068 -15.63939 -0.2106118 -94.7193 14.91719 42.63502 -0 0 2.715361 3.185623 12.72646 -1.385373
